<svg width="32" height="32" viewBox="0 0 32 32" fill="none" xmlns="http://www.w3.org/2000/svg">
<g id="call">
<mask id="mask0_1_1095" style="mask-type:alpha" maskUnits="userSpaceOnUse" x="0" y="0" width="32" height="32">
<rect id="Bounding box" width="32" height="32" fill="#D9D9D9"/>
</mask>
<g mask="url(#mask0_1_1095)">
<path id="call_2" d="M25.9205 27.3334C23.4077 27.3334 20.8833 26.7492 18.3474 25.5808C15.8115 24.4124 13.4816 22.7641 11.3577 20.6359C9.23379 18.5077 7.58763 16.1778 6.41925 13.6462C5.25088 11.1146 4.66669 8.59238 4.66669 6.07958C4.66669 5.67592 4.80002 5.33953 5.06669 5.07042C5.33335 4.80131 5.66669 4.66675 6.06669 4.66675H10.4154C10.7521 4.66675 11.0491 4.77658 11.3064 4.99625C11.5637 5.21592 11.7273 5.48728 11.7974 5.81035L12.5615 9.73338C12.6145 10.0975 12.6034 10.4103 12.5282 10.6718C12.453 10.9334 12.3179 11.153 12.123 11.3308L9.04355 14.3283C9.53929 15.2359 10.1055 16.0945 10.7423 16.9039C11.379 17.7133 12.0684 18.4864 12.8102 19.2232C13.5419 19.9548 14.3197 20.6343 15.1436 21.2616C15.9675 21.889 16.8573 22.4727 17.8128 23.0129L20.8051 19.9949C21.0137 19.7779 21.2662 19.6257 21.5628 19.5386C21.8594 19.4514 22.1675 19.43 22.4872 19.4745L26.1897 20.2283C26.5264 20.3172 26.8012 20.489 27.0141 20.7437C27.2269 20.9984 27.3333 21.2873 27.3333 21.6104V25.9334C27.3333 26.3334 27.1987 26.6667 26.9296 26.9334C26.6605 27.2 26.3241 27.3334 25.9205 27.3334ZM8.09742 12.436L10.4769 10.159C10.5197 10.1249 10.5474 10.0778 10.5603 10.018C10.5731 9.95817 10.5709 9.90262 10.5539 9.85135L9.97435 6.87185C9.95726 6.80347 9.92735 6.75219 9.88462 6.71802C9.84189 6.68382 9.78633 6.66672 9.71795 6.66672H6.86665C6.81539 6.66672 6.77265 6.68382 6.73845 6.71802C6.70425 6.75219 6.68715 6.79493 6.68715 6.84622C6.75553 7.75733 6.90468 8.68297 7.13459 9.62315C7.36452 10.5633 7.68547 11.5009 8.09742 12.436ZM19.6974 23.959C20.5812 24.371 21.503 24.686 22.4628 24.9039C23.4226 25.1219 24.3196 25.2513 25.1538 25.2924C25.2051 25.2924 25.2478 25.2753 25.282 25.2411C25.3162 25.2069 25.3333 25.1641 25.3333 25.1129V22.3078C25.3333 22.2394 25.3162 22.1838 25.282 22.1411C25.2478 22.0983 25.1966 22.0684 25.1282 22.0513L22.3282 21.4821C22.2769 21.465 22.2321 21.4629 22.1936 21.4757C22.1551 21.4885 22.1145 21.5163 22.0718 21.559L19.6974 23.959Z" fill="#282828" fill-opacity="0.8"/>
</g>
</g>
</svg>
