<svg width="32" height="32" viewBox="0 0 32 32" fill="none" xmlns="http://www.w3.org/2000/svg">
<g id="chat">
<mask id="mask0_1_975" style="mask-type:alpha" maskUnits="userSpaceOnUse" x="0" y="0" width="32" height="32">
<rect id="Bounding box" width="32" height="32" fill="#D9D9D9"/>
</mask>
<g mask="url(#mask0_1_975)">
<path id="chat_2" d="M8.33331 18.3333H18.3332V16.3334H8.33331V18.3333ZM8.33331 14.3333H23.6666V12.3334H8.33331V14.3333ZM8.33331 10.3333H23.6666V8.33337H8.33331V10.3333ZM3.33331 28.0512V5.74364C3.33331 5.07013 3.56665 4.50004 4.03331 4.03337C4.49998 3.56671 5.07007 3.33337 5.74358 3.33337H26.2563C26.9298 3.33337 27.4999 3.56671 27.9666 4.03337C28.4332 4.50004 28.6666 5.07013 28.6666 5.74364V20.923C28.6666 21.5966 28.4332 22.1666 27.9666 22.6333C27.4999 23.1 26.9298 23.3333 26.2563 23.3333H8.05125L3.33331 28.0512ZM7.19998 21.3333H26.2563C26.3589 21.3333 26.4529 21.2906 26.5384 21.2051C26.6239 21.1197 26.6666 21.0256 26.6666 20.923V5.74364C26.6666 5.64106 26.6239 5.54703 26.5384 5.46154C26.4529 5.37608 26.3589 5.33334 26.2563 5.33334H5.74358C5.641 5.33334 5.54697 5.37608 5.46148 5.46154C5.37601 5.54703 5.33328 5.64106 5.33328 5.74364V23.1795L7.19998 21.3333Z" fill="#282828" fill-opacity="0.8"/>
</g>
</g>
</svg>
